<mxfile host="app.diagrams.net" modified="2023-04-18T14:20:46.057Z" agent="Mozilla/5.0 (Windows NT 10.0; Win64; x64) AppleWebKit/537.36 (KHTML, like Gecko) Chrome/112.0.0.0 Safari/537.36 Edg/112.0.1722.48" etag="RdGkuRqe-OTB6ddP0kQg" version="21.1.8" type="device" pages="2">
  <diagram name="Search subscriptions" id="k8oMeOXu-pZ_v1-qhZVV">
    <mxGraphModel dx="1430" dy="792" grid="1" gridSize="10" guides="1" tooltips="1" connect="1" arrows="1" fold="1" page="1" pageScale="1" pageWidth="827" pageHeight="1169" math="0" shadow="0">
      <root>
        <mxCell id="0" />
        <mxCell id="1" parent="0" />
        <mxCell id="6u6LGTzj0KVweVZMTB9s-1" value="UKMCAB Search Email Subscriptions" style="shape=umlFrame;whiteSpace=wrap;html=1;pointerEvents=0;width=250;height=30;" parent="1" vertex="1">
          <mxGeometry x="130" y="20" width="440" height="1110" as="geometry" />
        </mxCell>
        <mxCell id="6u6LGTzj0KVweVZMTB9s-4" style="edgeStyle=orthogonalEdgeStyle;rounded=0;orthogonalLoop=1;jettySize=auto;html=1;entryX=0;entryY=0.5;entryDx=0;entryDy=0;" parent="1" source="6u6LGTzj0KVweVZMTB9s-2" target="6u6LGTzj0KVweVZMTB9s-3" edge="1">
          <mxGeometry relative="1" as="geometry" />
        </mxCell>
        <mxCell id="6u6LGTzj0KVweVZMTB9s-7" style="edgeStyle=orthogonalEdgeStyle;rounded=0;orthogonalLoop=1;jettySize=auto;html=1;entryX=0;entryY=0.5;entryDx=0;entryDy=0;" parent="1" source="6u6LGTzj0KVweVZMTB9s-2" target="6u6LGTzj0KVweVZMTB9s-6" edge="1">
          <mxGeometry relative="1" as="geometry" />
        </mxCell>
        <mxCell id="6u6LGTzj0KVweVZMTB9s-10" style="edgeStyle=orthogonalEdgeStyle;rounded=0;orthogonalLoop=1;jettySize=auto;html=1;entryX=0;entryY=0.5;entryDx=0;entryDy=0;" parent="1" source="6u6LGTzj0KVweVZMTB9s-2" target="6u6LGTzj0KVweVZMTB9s-9" edge="1">
          <mxGeometry relative="1" as="geometry" />
        </mxCell>
        <mxCell id="6u6LGTzj0KVweVZMTB9s-13" style="edgeStyle=orthogonalEdgeStyle;rounded=0;orthogonalLoop=1;jettySize=auto;html=1;entryX=0;entryY=0.5;entryDx=0;entryDy=0;" parent="1" source="6u6LGTzj0KVweVZMTB9s-2" target="6u6LGTzj0KVweVZMTB9s-20" edge="1">
          <mxGeometry relative="1" as="geometry">
            <mxPoint x="319" y="460" as="targetPoint" />
          </mxGeometry>
        </mxCell>
        <mxCell id="6u6LGTzj0KVweVZMTB9s-16" style="edgeStyle=orthogonalEdgeStyle;rounded=0;orthogonalLoop=1;jettySize=auto;html=1;entryX=0;entryY=0.5;entryDx=0;entryDy=0;" parent="1" source="6u6LGTzj0KVweVZMTB9s-2" target="6u6LGTzj0KVweVZMTB9s-12" edge="1">
          <mxGeometry relative="1" as="geometry" />
        </mxCell>
        <mxCell id="6u6LGTzj0KVweVZMTB9s-17" style="edgeStyle=orthogonalEdgeStyle;rounded=0;orthogonalLoop=1;jettySize=auto;html=1;entryX=0;entryY=0.5;entryDx=0;entryDy=0;" parent="1" source="6u6LGTzj0KVweVZMTB9s-2" target="6u6LGTzj0KVweVZMTB9s-15" edge="1">
          <mxGeometry relative="1" as="geometry" />
        </mxCell>
        <mxCell id="6u6LGTzj0KVweVZMTB9s-24" style="edgeStyle=orthogonalEdgeStyle;rounded=0;orthogonalLoop=1;jettySize=auto;html=1;entryX=0;entryY=0.5;entryDx=0;entryDy=0;" parent="1" source="6u6LGTzj0KVweVZMTB9s-2" target="6u6LGTzj0KVweVZMTB9s-22" edge="1">
          <mxGeometry relative="1" as="geometry" />
        </mxCell>
        <mxCell id="6u6LGTzj0KVweVZMTB9s-25" style="edgeStyle=orthogonalEdgeStyle;rounded=0;orthogonalLoop=1;jettySize=auto;html=1;entryX=0;entryY=0.5;entryDx=0;entryDy=0;" parent="1" source="6u6LGTzj0KVweVZMTB9s-2" target="6u6LGTzj0KVweVZMTB9s-23" edge="1">
          <mxGeometry relative="1" as="geometry" />
        </mxCell>
        <mxCell id="QtQHL0JAdbLzKyH16aWX-2" style="edgeStyle=orthogonalEdgeStyle;rounded=0;orthogonalLoop=1;jettySize=auto;html=1;entryX=0;entryY=0.5;entryDx=0;entryDy=0;" parent="1" source="6u6LGTzj0KVweVZMTB9s-2" target="QtQHL0JAdbLzKyH16aWX-1" edge="1">
          <mxGeometry relative="1" as="geometry" />
        </mxCell>
        <mxCell id="1hHF9i08_HjdJ4K589QR-2" style="edgeStyle=orthogonalEdgeStyle;rounded=0;orthogonalLoop=1;jettySize=auto;html=1;entryX=0;entryY=0.5;entryDx=0;entryDy=0;" edge="1" parent="1" source="6u6LGTzj0KVweVZMTB9s-2" target="1hHF9i08_HjdJ4K589QR-1">
          <mxGeometry relative="1" as="geometry" />
        </mxCell>
        <mxCell id="6u6LGTzj0KVweVZMTB9s-2" value="User" style="shape=umlActor;verticalLabelPosition=bottom;verticalAlign=top;html=1;outlineConnect=0;" parent="1" vertex="1">
          <mxGeometry x="30" y="320" width="30" height="60" as="geometry" />
        </mxCell>
        <mxCell id="6u6LGTzj0KVweVZMTB9s-3" value="&lt;font style=&quot;font-size: 10px;&quot;&gt;Request subscribe-search (inputs: email address, frequency, search filters)&amp;nbsp;&lt;/font&gt;" style="ellipse;whiteSpace=wrap;html=1;fillColor=#d5e8d4;strokeColor=#82b366;" parent="1" vertex="1">
          <mxGeometry x="160" y="70" width="140" height="115" as="geometry" />
        </mxCell>
        <mxCell id="6u6LGTzj0KVweVZMTB9s-6" value="&lt;font style=&quot;&quot;&gt;&lt;font style=&quot;font-size: 10px;&quot;&gt;Confirm (via email link) &lt;br&gt;subscribe-search&lt;/font&gt;&lt;br&gt;&lt;/font&gt;" style="ellipse;whiteSpace=wrap;html=1;fillColor=#d5e8d4;strokeColor=#82b366;" parent="1" vertex="1">
          <mxGeometry x="160" y="197.5" width="120" height="82.5" as="geometry" />
        </mxCell>
        <mxCell id="6u6LGTzj0KVweVZMTB9s-29" style="edgeStyle=orthogonalEdgeStyle;rounded=0;orthogonalLoop=1;jettySize=auto;html=1;entryX=1;entryY=0.5;entryDx=0;entryDy=0;" parent="1" source="6u6LGTzj0KVweVZMTB9s-8" target="6u6LGTzj0KVweVZMTB9s-21" edge="1">
          <mxGeometry relative="1" as="geometry" />
        </mxCell>
        <mxCell id="6u6LGTzj0KVweVZMTB9s-30" style="edgeStyle=orthogonalEdgeStyle;rounded=0;orthogonalLoop=1;jettySize=auto;html=1;entryX=1;entryY=0.5;entryDx=0;entryDy=0;" parent="1" source="6u6LGTzj0KVweVZMTB9s-8" target="6u6LGTzj0KVweVZMTB9s-28" edge="1">
          <mxGeometry relative="1" as="geometry" />
        </mxCell>
        <mxCell id="6u6LGTzj0KVweVZMTB9s-8" value="System" style="shape=umlActor;verticalLabelPosition=bottom;verticalAlign=top;html=1;outlineConnect=0;" parent="1" vertex="1">
          <mxGeometry x="640" y="170" width="30" height="60" as="geometry" />
        </mxCell>
        <mxCell id="6u6LGTzj0KVweVZMTB9s-9" value="&lt;font style=&quot;font-size: 10px;&quot;&gt;Unsubscribe search &lt;br&gt;(via email link)&lt;/font&gt;" style="ellipse;whiteSpace=wrap;html=1;fillColor=#d5e8d4;strokeColor=#82b366;" parent="1" vertex="1">
          <mxGeometry x="160" y="290" width="130" height="70" as="geometry" />
        </mxCell>
        <mxCell id="6u6LGTzj0KVweVZMTB9s-12" value="&lt;font style=&quot;font-size: 10px;&quot;&gt;Request change email address&lt;/font&gt;" style="ellipse;whiteSpace=wrap;html=1;fillColor=#d5e8d4;strokeColor=#82b366;" parent="1" vertex="1">
          <mxGeometry x="160" y="460" width="120" height="70" as="geometry" />
        </mxCell>
        <mxCell id="6u6LGTzj0KVweVZMTB9s-15" value="&lt;font style=&quot;font-size: 10px;&quot;&gt;Confirm change email address (via email link)&lt;/font&gt;" style="ellipse;whiteSpace=wrap;html=1;fillColor=#d5e8d4;strokeColor=#82b366;" parent="1" vertex="1">
          <mxGeometry x="160" y="540" width="130" height="70" as="geometry" />
        </mxCell>
        <mxCell id="6u6LGTzj0KVweVZMTB9s-20" value="&lt;font style=&quot;font-size: 10px;&quot;&gt;View search subscription options (change email or frequency; or unsubscribe)&lt;/font&gt;" style="ellipse;whiteSpace=wrap;html=1;fillColor=#d5e8d4;strokeColor=#82b366;" parent="1" vertex="1">
          <mxGeometry x="160" y="370" width="140" height="82.5" as="geometry" />
        </mxCell>
        <mxCell id="6u6LGTzj0KVweVZMTB9s-21" value="&lt;span style=&quot;font-size: 10px;&quot;&gt;Monitor all search subscriptions&lt;/span&gt;" style="ellipse;whiteSpace=wrap;html=1;" parent="1" vertex="1">
          <mxGeometry x="360" y="87.5" width="176" height="80" as="geometry" />
        </mxCell>
        <mxCell id="6u6LGTzj0KVweVZMTB9s-22" value="&lt;font style=&quot;font-size: 10px;&quot;&gt;Receive email about search result changes (X additions, Y removals)&lt;/font&gt;" style="ellipse;whiteSpace=wrap;html=1;" parent="1" vertex="1">
          <mxGeometry x="160" y="620" width="145" height="80" as="geometry" />
        </mxCell>
        <mxCell id="6u6LGTzj0KVweVZMTB9s-27" style="edgeStyle=orthogonalEdgeStyle;rounded=0;orthogonalLoop=1;jettySize=auto;html=1;entryX=0.5;entryY=0;entryDx=0;entryDy=0;" parent="1" source="6u6LGTzj0KVweVZMTB9s-23" target="6u6LGTzj0KVweVZMTB9s-26" edge="1">
          <mxGeometry relative="1" as="geometry" />
        </mxCell>
        <mxCell id="6u6LGTzj0KVweVZMTB9s-23" value="&lt;font style=&quot;font-size: 10px;&quot;&gt;View a list of CABs that have been added or removed to/from a search&lt;/font&gt;" style="ellipse;whiteSpace=wrap;html=1;" parent="1" vertex="1">
          <mxGeometry x="160" y="710" width="180" height="80" as="geometry" />
        </mxCell>
        <mxCell id="6u6LGTzj0KVweVZMTB9s-26" value="&lt;font style=&quot;font-size: 10px;&quot;&gt;View refreshed search&lt;br&gt;&lt;/font&gt;" style="ellipse;whiteSpace=wrap;html=1;" parent="1" vertex="1">
          <mxGeometry x="180" y="810" width="140" height="60" as="geometry" />
        </mxCell>
        <mxCell id="6u6LGTzj0KVweVZMTB9s-28" value="&lt;span style=&quot;font-size: 10px;&quot;&gt;Send search subscription change notification emails (according to frequency rules and whether search results have changed)&lt;/span&gt;" style="ellipse;whiteSpace=wrap;html=1;" parent="1" vertex="1">
          <mxGeometry x="360" y="180" width="181" height="130" as="geometry" />
        </mxCell>
        <mxCell id="QtQHL0JAdbLzKyH16aWX-1" value="&lt;span style=&quot;font-size: 10px;&quot;&gt;Unsubscribe all&lt;/span&gt;" style="ellipse;whiteSpace=wrap;html=1;fillColor=#d5e8d4;strokeColor=#82b366;" parent="1" vertex="1">
          <mxGeometry x="160" y="890" width="105.5" height="40" as="geometry" />
        </mxCell>
        <mxCell id="1hHF9i08_HjdJ4K589QR-1" value="&lt;font style=&quot;font-size: 10px;&quot;&gt;Request change frequency&lt;/font&gt;" style="ellipse;whiteSpace=wrap;html=1;fillColor=#d5e8d4;strokeColor=#82b366;" vertex="1" parent="1">
          <mxGeometry x="160" y="940" width="120" height="70" as="geometry" />
        </mxCell>
        <mxCell id="w8g1zEGl-OU56rEhY-Px-1" value="&lt;font style=&quot;font-size: 10px;&quot;&gt;List subscriptions by email address&lt;/font&gt;" style="ellipse;whiteSpace=wrap;html=1;fillColor=#d5e8d4;strokeColor=#82b366;" vertex="1" parent="1">
          <mxGeometry x="160" y="1020" width="187.25" height="70" as="geometry" />
        </mxCell>
      </root>
    </mxGraphModel>
  </diagram>
  <diagram name="CAB update subscriptions" id="_XlGETWoOx7Vt5d_m4Tj">
    <mxGraphModel dx="1430" dy="792" grid="1" gridSize="10" guides="1" tooltips="1" connect="1" arrows="1" fold="1" page="1" pageScale="1" pageWidth="827" pageHeight="1169" math="0" shadow="0">
      <root>
        <mxCell id="IIA37PQraK8sTAz5qBBJ-0" />
        <mxCell id="IIA37PQraK8sTAz5qBBJ-1" parent="IIA37PQraK8sTAz5qBBJ-0" />
        <mxCell id="IIA37PQraK8sTAz5qBBJ-2" value="UKMCAB CAB-update Email Subscriptions" style="shape=umlFrame;whiteSpace=wrap;html=1;pointerEvents=0;width=250;height=30;" parent="IIA37PQraK8sTAz5qBBJ-1" vertex="1">
          <mxGeometry x="130" y="20" width="440" height="1050" as="geometry" />
        </mxCell>
        <mxCell id="IIA37PQraK8sTAz5qBBJ-3" style="edgeStyle=orthogonalEdgeStyle;rounded=0;orthogonalLoop=1;jettySize=auto;html=1;entryX=0;entryY=0.5;entryDx=0;entryDy=0;" parent="IIA37PQraK8sTAz5qBBJ-1" source="IIA37PQraK8sTAz5qBBJ-12" target="IIA37PQraK8sTAz5qBBJ-13" edge="1">
          <mxGeometry relative="1" as="geometry" />
        </mxCell>
        <mxCell id="IIA37PQraK8sTAz5qBBJ-4" style="edgeStyle=orthogonalEdgeStyle;rounded=0;orthogonalLoop=1;jettySize=auto;html=1;entryX=0;entryY=0.5;entryDx=0;entryDy=0;" parent="IIA37PQraK8sTAz5qBBJ-1" source="IIA37PQraK8sTAz5qBBJ-12" target="IIA37PQraK8sTAz5qBBJ-14" edge="1">
          <mxGeometry relative="1" as="geometry" />
        </mxCell>
        <mxCell id="IIA37PQraK8sTAz5qBBJ-5" style="edgeStyle=orthogonalEdgeStyle;rounded=0;orthogonalLoop=1;jettySize=auto;html=1;entryX=0;entryY=0.5;entryDx=0;entryDy=0;" parent="IIA37PQraK8sTAz5qBBJ-1" source="IIA37PQraK8sTAz5qBBJ-12" target="IIA37PQraK8sTAz5qBBJ-18" edge="1">
          <mxGeometry relative="1" as="geometry" />
        </mxCell>
        <mxCell id="IIA37PQraK8sTAz5qBBJ-6" style="edgeStyle=orthogonalEdgeStyle;rounded=0;orthogonalLoop=1;jettySize=auto;html=1;entryX=0;entryY=0.5;entryDx=0;entryDy=0;" parent="IIA37PQraK8sTAz5qBBJ-1" source="IIA37PQraK8sTAz5qBBJ-12" target="IIA37PQraK8sTAz5qBBJ-21" edge="1">
          <mxGeometry relative="1" as="geometry">
            <mxPoint x="319" y="460" as="targetPoint" />
          </mxGeometry>
        </mxCell>
        <mxCell id="IIA37PQraK8sTAz5qBBJ-7" style="edgeStyle=orthogonalEdgeStyle;rounded=0;orthogonalLoop=1;jettySize=auto;html=1;entryX=0;entryY=0.5;entryDx=0;entryDy=0;" parent="IIA37PQraK8sTAz5qBBJ-1" source="IIA37PQraK8sTAz5qBBJ-12" target="IIA37PQraK8sTAz5qBBJ-19" edge="1">
          <mxGeometry relative="1" as="geometry" />
        </mxCell>
        <mxCell id="IIA37PQraK8sTAz5qBBJ-8" style="edgeStyle=orthogonalEdgeStyle;rounded=0;orthogonalLoop=1;jettySize=auto;html=1;entryX=0;entryY=0.5;entryDx=0;entryDy=0;" parent="IIA37PQraK8sTAz5qBBJ-1" source="IIA37PQraK8sTAz5qBBJ-12" target="IIA37PQraK8sTAz5qBBJ-20" edge="1">
          <mxGeometry relative="1" as="geometry" />
        </mxCell>
        <mxCell id="IIA37PQraK8sTAz5qBBJ-9" style="edgeStyle=orthogonalEdgeStyle;rounded=0;orthogonalLoop=1;jettySize=auto;html=1;entryX=0;entryY=0.5;entryDx=0;entryDy=0;" parent="IIA37PQraK8sTAz5qBBJ-1" source="IIA37PQraK8sTAz5qBBJ-12" target="IIA37PQraK8sTAz5qBBJ-23" edge="1">
          <mxGeometry relative="1" as="geometry" />
        </mxCell>
        <mxCell id="IIA37PQraK8sTAz5qBBJ-10" style="edgeStyle=orthogonalEdgeStyle;rounded=0;orthogonalLoop=1;jettySize=auto;html=1;entryX=0;entryY=0.5;entryDx=0;entryDy=0;" parent="IIA37PQraK8sTAz5qBBJ-1" source="IIA37PQraK8sTAz5qBBJ-12" target="IIA37PQraK8sTAz5qBBJ-25" edge="1">
          <mxGeometry relative="1" as="geometry" />
        </mxCell>
        <mxCell id="IIA37PQraK8sTAz5qBBJ-11" style="edgeStyle=orthogonalEdgeStyle;rounded=0;orthogonalLoop=1;jettySize=auto;html=1;entryX=0;entryY=0.5;entryDx=0;entryDy=0;" parent="IIA37PQraK8sTAz5qBBJ-1" source="IIA37PQraK8sTAz5qBBJ-12" target="IIA37PQraK8sTAz5qBBJ-28" edge="1">
          <mxGeometry relative="1" as="geometry" />
        </mxCell>
        <mxCell id="4YrQnhSgEk_p_J8gSoFi-1" style="edgeStyle=orthogonalEdgeStyle;rounded=0;orthogonalLoop=1;jettySize=auto;html=1;entryX=0;entryY=0.5;entryDx=0;entryDy=0;" edge="1" parent="IIA37PQraK8sTAz5qBBJ-1" source="IIA37PQraK8sTAz5qBBJ-12" target="4YrQnhSgEk_p_J8gSoFi-0">
          <mxGeometry relative="1" as="geometry" />
        </mxCell>
        <mxCell id="IIA37PQraK8sTAz5qBBJ-12" value="User" style="shape=umlActor;verticalLabelPosition=bottom;verticalAlign=top;html=1;outlineConnect=0;" parent="IIA37PQraK8sTAz5qBBJ-1" vertex="1">
          <mxGeometry x="30" y="320" width="30" height="60" as="geometry" />
        </mxCell>
        <mxCell id="IIA37PQraK8sTAz5qBBJ-13" value="&lt;font style=&quot;font-size: 10px;&quot;&gt;Request subscribe-cab &lt;/font&gt;&lt;font style=&quot;font-size: 9px;&quot;&gt;(inputs: email address, frequency, CAB id)&amp;nbsp;&lt;/font&gt;" style="ellipse;whiteSpace=wrap;html=1;fillColor=#d5e8d4;strokeColor=#82b366;" parent="IIA37PQraK8sTAz5qBBJ-1" vertex="1">
          <mxGeometry x="160" y="70" width="130" height="115" as="geometry" />
        </mxCell>
        <mxCell id="IIA37PQraK8sTAz5qBBJ-14" value="&lt;font style=&quot;&quot;&gt;&lt;font style=&quot;font-size: 10px;&quot;&gt;Confirm&amp;nbsp;subscribe-CAB&lt;/font&gt;&lt;font style=&quot;font-size: 9px;&quot;&gt;&lt;font style=&quot;&quot;&gt;&lt;br&gt;&lt;/font&gt;(via email link)&lt;/font&gt;&lt;br&gt;&lt;/font&gt;" style="ellipse;whiteSpace=wrap;html=1;fillColor=#d5e8d4;strokeColor=#82b366;" parent="IIA37PQraK8sTAz5qBBJ-1" vertex="1">
          <mxGeometry x="160" y="197.5" width="120" height="82.5" as="geometry" />
        </mxCell>
        <mxCell id="IIA37PQraK8sTAz5qBBJ-15" style="edgeStyle=orthogonalEdgeStyle;rounded=0;orthogonalLoop=1;jettySize=auto;html=1;entryX=1;entryY=0.5;entryDx=0;entryDy=0;" parent="IIA37PQraK8sTAz5qBBJ-1" source="IIA37PQraK8sTAz5qBBJ-17" target="IIA37PQraK8sTAz5qBBJ-22" edge="1">
          <mxGeometry relative="1" as="geometry" />
        </mxCell>
        <mxCell id="IIA37PQraK8sTAz5qBBJ-17" value="System" style="shape=umlActor;verticalLabelPosition=bottom;verticalAlign=top;html=1;outlineConnect=0;" parent="IIA37PQraK8sTAz5qBBJ-1" vertex="1">
          <mxGeometry x="640" y="170" width="30" height="60" as="geometry" />
        </mxCell>
        <mxCell id="IIA37PQraK8sTAz5qBBJ-18" value="&lt;font style=&quot;&quot;&gt;&lt;span style=&quot;font-size: 10px;&quot;&gt;Unsubscribe CAB&lt;/span&gt;&lt;br&gt;&lt;font style=&quot;font-size: 9px;&quot;&gt;(via email link)&lt;/font&gt;&lt;/font&gt;" style="ellipse;whiteSpace=wrap;html=1;fillColor=#d5e8d4;strokeColor=#82b366;" parent="IIA37PQraK8sTAz5qBBJ-1" vertex="1">
          <mxGeometry x="160" y="290" width="130" height="70" as="geometry" />
        </mxCell>
        <mxCell id="IIA37PQraK8sTAz5qBBJ-19" value="&lt;font style=&quot;font-size: 10px;&quot;&gt;Request change email address&lt;/font&gt;" style="ellipse;whiteSpace=wrap;html=1;fillColor=#d5e8d4;strokeColor=#82b366;" parent="IIA37PQraK8sTAz5qBBJ-1" vertex="1">
          <mxGeometry x="160" y="460" width="120" height="70" as="geometry" />
        </mxCell>
        <mxCell id="IIA37PQraK8sTAz5qBBJ-20" value="&lt;font style=&quot;&quot;&gt;&lt;span style=&quot;font-size: 10px;&quot;&gt;Confirm change email address &lt;/span&gt;&lt;br&gt;&lt;font style=&quot;font-size: 9px;&quot;&gt;(via email link)&lt;/font&gt;&lt;/font&gt;" style="ellipse;whiteSpace=wrap;html=1;fillColor=#d5e8d4;strokeColor=#82b366;" parent="IIA37PQraK8sTAz5qBBJ-1" vertex="1">
          <mxGeometry x="160" y="540" width="130" height="70" as="geometry" />
        </mxCell>
        <mxCell id="IIA37PQraK8sTAz5qBBJ-21" value="&lt;font style=&quot;font-size: 10px;&quot;&gt;View CAB subscription options &lt;/font&gt;&lt;font style=&quot;font-size: 9px;&quot;&gt;(change email or frequency; or unsubscribe)&lt;/font&gt;" style="ellipse;whiteSpace=wrap;html=1;fillColor=#d5e8d4;strokeColor=#82b366;" parent="IIA37PQraK8sTAz5qBBJ-1" vertex="1">
          <mxGeometry x="160" y="370" width="160" height="82.5" as="geometry" />
        </mxCell>
        <mxCell id="9PBQ5MQ4Autz2QQH_ui3-0" style="edgeStyle=orthogonalEdgeStyle;rounded=0;orthogonalLoop=1;jettySize=auto;html=1;entryX=0.5;entryY=0;entryDx=0;entryDy=0;" parent="IIA37PQraK8sTAz5qBBJ-1" source="IIA37PQraK8sTAz5qBBJ-22" target="IIA37PQraK8sTAz5qBBJ-27" edge="1">
          <mxGeometry relative="1" as="geometry" />
        </mxCell>
        <mxCell id="IIA37PQraK8sTAz5qBBJ-22" value="Monitor all CAB subscriptions" style="ellipse;whiteSpace=wrap;html=1;" parent="IIA37PQraK8sTAz5qBBJ-1" vertex="1">
          <mxGeometry x="330" y="87.5" width="220" height="80" as="geometry" />
        </mxCell>
        <mxCell id="IIA37PQraK8sTAz5qBBJ-23" value="&lt;font style=&quot;font-size: 10px;&quot;&gt;Receive email about CAB update (no details RE changes)&lt;/font&gt;" style="ellipse;whiteSpace=wrap;html=1;" parent="IIA37PQraK8sTAz5qBBJ-1" vertex="1">
          <mxGeometry x="160" y="620" width="160" height="80" as="geometry" />
        </mxCell>
        <mxCell id="IIA37PQraK8sTAz5qBBJ-24" style="edgeStyle=orthogonalEdgeStyle;rounded=0;orthogonalLoop=1;jettySize=auto;html=1;entryX=0.5;entryY=0;entryDx=0;entryDy=0;" parent="IIA37PQraK8sTAz5qBBJ-1" source="IIA37PQraK8sTAz5qBBJ-25" target="IIA37PQraK8sTAz5qBBJ-26" edge="1">
          <mxGeometry relative="1" as="geometry" />
        </mxCell>
        <mxCell id="IIA37PQraK8sTAz5qBBJ-25" value="&lt;font style=&quot;font-size: 10px;&quot;&gt;View CAB changes&lt;/font&gt;" style="ellipse;whiteSpace=wrap;html=1;" parent="IIA37PQraK8sTAz5qBBJ-1" vertex="1">
          <mxGeometry x="160" y="710" width="180" height="80" as="geometry" />
        </mxCell>
        <mxCell id="IIA37PQraK8sTAz5qBBJ-26" value="&lt;font style=&quot;font-size: 10px;&quot;&gt;View CAB record&lt;br&gt;&lt;/font&gt;" style="ellipse;whiteSpace=wrap;html=1;" parent="IIA37PQraK8sTAz5qBBJ-1" vertex="1">
          <mxGeometry x="180" y="810" width="140" height="60" as="geometry" />
        </mxCell>
        <mxCell id="IIA37PQraK8sTAz5qBBJ-27" value="&lt;span style=&quot;font-size: 10px;&quot;&gt;Where a CAB has changed since the subscription was created or since the last notification about a change, then send a CAB-updated notification email&lt;br&gt;&lt;/span&gt;" style="ellipse;whiteSpace=wrap;html=1;" parent="IIA37PQraK8sTAz5qBBJ-1" vertex="1">
          <mxGeometry x="330" y="197.5" width="220" height="140" as="geometry" />
        </mxCell>
        <mxCell id="IIA37PQraK8sTAz5qBBJ-28" value="&lt;span style=&quot;font-size: 10px;&quot;&gt;Unsubscribe all&lt;/span&gt;" style="ellipse;whiteSpace=wrap;html=1;fillColor=#d5e8d4;strokeColor=#82b366;" parent="IIA37PQraK8sTAz5qBBJ-1" vertex="1">
          <mxGeometry x="160" y="890" width="105.5" height="40" as="geometry" />
        </mxCell>
        <mxCell id="4YrQnhSgEk_p_J8gSoFi-0" value="&lt;font style=&quot;font-size: 10px;&quot;&gt;Request change frequency&lt;/font&gt;" style="ellipse;whiteSpace=wrap;html=1;fillColor=#d5e8d4;strokeColor=#82b366;" vertex="1" parent="IIA37PQraK8sTAz5qBBJ-1">
          <mxGeometry x="160" y="940" width="120" height="70" as="geometry" />
        </mxCell>
      </root>
    </mxGraphModel>
  </diagram>
</mxfile>
